<svg width="14" height="15" viewBox="0 0 14 15" fill="none" xmlns="http://www.w3.org/2000/svg">
<path d="M6.99994 0.653809C3.13431 0.653809 -6.10352e-05 3.78818 -6.10352e-05 7.65381C-6.10352e-05 11.5194 3.13431 14.6538 6.99994 14.6538C10.8656 14.6538 13.9999 11.5194 13.9999 7.65381C13.9999 3.78818 10.8656 0.653809 6.99994 0.653809ZM6.99994 13.4663C3.79056 13.4663 1.18744 10.8632 1.18744 7.65381C1.18744 4.44443 3.79056 1.84131 6.99994 1.84131C10.2093 1.84131 12.8124 4.44443 12.8124 7.65381C12.8124 10.8632 10.2093 13.4663 6.99994 13.4663Z" fill="#8A91A8"/>
<path d="M6.24994 4.90381C6.24994 5.10272 6.32896 5.29349 6.46961 5.43414C6.61026 5.57479 6.80103 5.65381 6.99994 5.65381C7.19885 5.65381 7.38962 5.57479 7.53027 5.43414C7.67092 5.29349 7.74994 5.10272 7.74994 4.90381C7.74994 4.7049 7.67092 4.51413 7.53027 4.37348C7.38962 4.23283 7.19885 4.15381 6.99994 4.15381C6.80103 4.15381 6.61026 4.23283 6.46961 4.37348C6.32896 4.51413 6.24994 4.7049 6.24994 4.90381ZM7.37494 6.65381H6.62494C6.55619 6.65381 6.49994 6.71006 6.49994 6.77881V11.0288C6.49994 11.0976 6.55619 11.1538 6.62494 11.1538H7.37494C7.44369 11.1538 7.49994 11.0976 7.49994 11.0288V6.77881C7.49994 6.71006 7.44369 6.65381 7.37494 6.65381Z" fill="#8A91A8"/>
</svg>
